<?xml version="1.0" encoding="UTF-8" standalone="no"?>
<!DOCTYPE svg PUBLIC "-//W3C//DTD SVG 1.1//EN"
 "http://www.w3.org/Graphics/SVG/1.1/DTD/svg11.dtd">
<!-- Generated by graphviz version 2.36.0 (20140111.2315)
 -->
<!-- Title: controllers_diagram Pages: 1 -->
<svg width="362pt" height="478pt"
 viewBox="0.00 0.00 362.37 478.38" xmlns="http://www.w3.org/2000/svg" xmlns:xlink="http://www.w3.org/1999/xlink">
<g id="graph0" class="graph" transform="scale(1 1) rotate(0) translate(4 474.376)">
<title>controllers_diagram</title>
<polygon fill="white" stroke="none" points="-4,4 -4,-474.376 358.37,-474.376 358.37,4 -4,4"/>
<!-- ApplicationController -->
<g id="node1" class="node"><title>ApplicationController</title>
<path fill="none" stroke="black" d="M12,-125.268C12,-125.268 127.642,-125.268 127.642,-125.268 133.642,-125.268 139.642,-131.268 139.642,-137.268 139.642,-137.268 139.642,-207.268 139.642,-207.268 139.642,-213.268 133.642,-219.268 127.642,-219.268 127.642,-219.268 12,-219.268 12,-219.268 6,-219.268 0,-213.268 0,-207.268 0,-207.268 0,-137.268 0,-137.268 0,-131.268 6,-125.268 12,-125.268"/>
<text text-anchor="middle" x="69.8208" y="-204.068" font-family="Times,serif" font-size="14.00">ApplicationController</text>
<polyline fill="none" stroke="black" points="0,-197.268 139.642,-197.268 "/>
<polyline fill="none" stroke="black" points="0,-173.268 139.642,-173.268 "/>
<polyline fill="none" stroke="black" points="0,-149.268 139.642,-149.268 "/>
</g>
<!-- InstructorsController -->
<g id="node2" class="node"><title>InstructorsController</title>
<path fill="none" stroke="black" d="M232.949,-229.816C232.949,-229.816 342.37,-229.816 342.37,-229.816 348.37,-229.816 354.37,-235.816 354.37,-241.816 354.37,-241.816 354.37,-393.816 354.37,-393.816 354.37,-399.816 348.37,-405.816 342.37,-405.816 342.37,-405.816 232.949,-405.816 232.949,-405.816 226.949,-405.816 220.949,-399.816 220.949,-393.816 220.949,-393.816 220.949,-241.816 220.949,-241.816 220.949,-235.816 226.949,-229.816 232.949,-229.816"/>
<text text-anchor="middle" x="287.66" y="-390.616" font-family="Times,serif" font-size="14.00">InstructorsController</text>
<polyline fill="none" stroke="black" points="220.949,-383.816 354.37,-383.816 "/>
<text text-anchor="start" x="228.949" y="-368.616" font-family="Times,serif" font-size="14.00">create</text>
<text text-anchor="start" x="228.949" y="-354.616" font-family="Times,serif" font-size="14.00">destroy</text>
<text text-anchor="start" x="228.949" y="-340.616" font-family="Times,serif" font-size="14.00">edit</text>
<text text-anchor="start" x="228.949" y="-326.616" font-family="Times,serif" font-size="14.00">index</text>
<text text-anchor="start" x="228.949" y="-312.616" font-family="Times,serif" font-size="14.00">new</text>
<text text-anchor="start" x="228.949" y="-298.616" font-family="Times,serif" font-size="14.00">show</text>
<text text-anchor="start" x="228.949" y="-284.616" font-family="Times,serif" font-size="14.00">update</text>
<polyline fill="none" stroke="black" points="220.949,-277.816 354.37,-277.816 "/>
<polyline fill="none" stroke="black" points="220.949,-253.816 354.37,-253.816 "/>
</g>
<!-- ApplicationController&#45;&gt;InstructorsController -->
<g id="edge1" class="edge"><title>ApplicationController&#45;&gt;InstructorsController</title>
<path fill="none" stroke="black" d="M139.645,-218.921C165.655,-236.299 195.094,-255.969 220.828,-273.163"/>
</g>
<!-- SquadsController -->
<g id="node3" class="node"><title>SquadsController</title>
<path fill="none" stroke="black" d="M187.911,-0.5C187.911,-0.5 277.904,-0.5 277.904,-0.5 283.904,-0.5 289.904,-6.5 289.904,-12.5 289.904,-12.5 289.904,-164.5 289.904,-164.5 289.904,-170.5 283.904,-176.5 277.904,-176.5 277.904,-176.5 187.911,-176.5 187.911,-176.5 181.911,-176.5 175.911,-170.5 175.911,-164.5 175.911,-164.5 175.911,-12.5 175.911,-12.5 175.911,-6.5 181.911,-0.5 187.911,-0.5"/>
<text text-anchor="middle" x="232.908" y="-161.3" font-family="Times,serif" font-size="14.00">SquadsController</text>
<polyline fill="none" stroke="black" points="175.911,-154.5 289.904,-154.5 "/>
<text text-anchor="start" x="183.911" y="-139.3" font-family="Times,serif" font-size="14.00">create</text>
<text text-anchor="start" x="183.911" y="-125.3" font-family="Times,serif" font-size="14.00">destroy</text>
<text text-anchor="start" x="183.911" y="-111.3" font-family="Times,serif" font-size="14.00">edit</text>
<text text-anchor="start" x="183.911" y="-97.3" font-family="Times,serif" font-size="14.00">index</text>
<text text-anchor="start" x="183.911" y="-83.3" font-family="Times,serif" font-size="14.00">new</text>
<text text-anchor="start" x="183.911" y="-69.3" font-family="Times,serif" font-size="14.00">show</text>
<text text-anchor="start" x="183.911" y="-55.3" font-family="Times,serif" font-size="14.00">update</text>
<polyline fill="none" stroke="black" points="175.911,-48.5 289.904,-48.5 "/>
<polyline fill="none" stroke="black" points="175.911,-24.5 289.904,-24.5 "/>
</g>
<!-- ApplicationController&#45;&gt;SquadsController -->
<g id="edge2" class="edge"><title>ApplicationController&#45;&gt;SquadsController</title>
<path fill="none" stroke="black" d="M139.931,-136.257C151.931,-130.093 164.268,-123.756 175.875,-117.794"/>
</g>
<!-- StudentsController -->
<g id="node4" class="node"><title>StudentsController</title>
<path fill="none" stroke="black" d="M56.8514,-293.876C56.8514,-293.876 154.624,-293.876 154.624,-293.876 160.624,-293.876 166.624,-299.876 166.624,-305.876 166.624,-305.876 166.624,-457.876 166.624,-457.876 166.624,-463.876 160.624,-469.876 154.624,-469.876 154.624,-469.876 56.8514,-469.876 56.8514,-469.876 50.8514,-469.876 44.8514,-463.876 44.8514,-457.876 44.8514,-457.876 44.8514,-305.876 44.8514,-305.876 44.8514,-299.876 50.8514,-293.876 56.8514,-293.876"/>
<text text-anchor="middle" x="105.738" y="-454.676" font-family="Times,serif" font-size="14.00">StudentsController</text>
<polyline fill="none" stroke="black" points="44.8514,-447.876 166.624,-447.876 "/>
<text text-anchor="start" x="52.8514" y="-432.676" font-family="Times,serif" font-size="14.00">create</text>
<text text-anchor="start" x="52.8514" y="-418.676" font-family="Times,serif" font-size="14.00">destroy</text>
<text text-anchor="start" x="52.8514" y="-404.676" font-family="Times,serif" font-size="14.00">edit</text>
<text text-anchor="start" x="52.8514" y="-390.676" font-family="Times,serif" font-size="14.00">index</text>
<text text-anchor="start" x="52.8514" y="-376.676" font-family="Times,serif" font-size="14.00">new</text>
<text text-anchor="start" x="52.8514" y="-362.676" font-family="Times,serif" font-size="14.00">show</text>
<text text-anchor="start" x="52.8514" y="-348.676" font-family="Times,serif" font-size="14.00">update</text>
<polyline fill="none" stroke="black" points="44.8514,-341.876 166.624,-341.876 "/>
<polyline fill="none" stroke="black" points="44.8514,-317.876 166.624,-317.876 "/>
</g>
<!-- ApplicationController&#45;&gt;StudentsController -->
<g id="edge3" class="edge"><title>ApplicationController&#45;&gt;StudentsController</title>
<path fill="none" stroke="black" d="M77.8812,-219.308C81.6455,-241.276 86.2535,-268.168 90.6297,-293.707"/>
</g>
</g>
</svg>
