<?xml version="1.0" encoding="UTF-8" standalone="no"?>
<!DOCTYPE svg PUBLIC "-//W3C//DTD SVG 1.1//EN"
 "http://www.w3.org/Graphics/SVG/1.1/DTD/svg11.dtd">
<!-- Generated by graphviz version 2.36.0 (20140111.2315)
 -->
<!-- Title: controllers_diagram Pages: 1 -->
<svg width="148pt" height="103pt"
 viewBox="0.00 0.00 147.64 103.00" xmlns="http://www.w3.org/2000/svg" xmlns:xlink="http://www.w3.org/1999/xlink">
<g id="graph0" class="graph" transform="scale(1 1) rotate(0) translate(4 99)">
<title>controllers_diagram</title>
<polygon fill="white" stroke="none" points="-4,4 -4,-99 143.642,-99 143.642,4 -4,4"/>
<!-- ApplicationController -->
<g id="node1" class="node"><title>ApplicationController</title>
<path fill="none" stroke="black" d="M12,-0.5C12,-0.5 127.642,-0.5 127.642,-0.5 133.642,-0.5 139.642,-6.5 139.642,-12.5 139.642,-12.5 139.642,-82.5 139.642,-82.5 139.642,-88.5 133.642,-94.5 127.642,-94.5 127.642,-94.5 12,-94.5 12,-94.5 6,-94.5 0,-88.5 0,-82.5 0,-82.5 0,-12.5 0,-12.5 0,-6.5 6,-0.5 12,-0.5"/>
<text text-anchor="middle" x="69.8208" y="-79.3" font-family="Times,serif" font-size="14.00">ApplicationController</text>
<polyline fill="none" stroke="black" points="0,-72.5 139.642,-72.5 "/>
<polyline fill="none" stroke="black" points="0,-48.5 139.642,-48.5 "/>
<polyline fill="none" stroke="black" points="0,-24.5 139.642,-24.5 "/>
</g>
</g>
</svg>
