<?xml version="1.0" encoding="UTF-8" standalone="no"?>
<!DOCTYPE svg PUBLIC "-//W3C//DTD SVG 1.1//EN"
 "http://www.w3.org/Graphics/SVG/1.1/DTD/svg11.dtd">
<!-- Generated by graphviz version 2.36.0 (20140111.2315)
 -->
<!-- Title: models_diagram Pages: 1 -->
<svg width="96pt" height="188pt"
 viewBox="0.00 0.00 96.00 188.00" xmlns="http://www.w3.org/2000/svg" xmlns:xlink="http://www.w3.org/1999/xlink">
<g id="graph0" class="graph" transform="scale(1 1) rotate(0) translate(4 184)">
<title>models_diagram</title>
<polygon fill="white" stroke="none" points="-4,4 -4,-184 92,-184 92,4 -4,4"/>
<!-- Instructor -->
<g id="node1" class="node"><title>Instructor</title>
<ellipse fill="none" stroke="black" cx="44" cy="-90" rx="44.2314" ry="18"/>
<text text-anchor="middle" x="44" y="-85.8" font-family="Times,serif" font-size="14.00">Instructor</text>
</g>
<!-- Squad -->
<g id="node2" class="node"><title>Squad</title>
<ellipse fill="none" stroke="black" cx="44" cy="-18" rx="32.324" ry="18"/>
<text text-anchor="middle" x="44" y="-13.8" font-family="Times,serif" font-size="14.00">Squad</text>
</g>
<!-- Instructor&#45;&gt;Squad -->
<g id="edge1" class="edge"><title>Instructor&#45;&gt;Squad</title>
<path fill="none" stroke="#d79015" d="M44,-63.6398C44,-58.0629 44,-52.1319 44,-46.4761"/>
<ellipse fill="none" stroke="#d79015" cx="44" cy="-67.6966" rx="4" ry="4"/>
<polygon fill="#d79015" stroke="#d79015" points="44.0001,-46.1043 48.5,-36.1043 44,-41.1043 44,-36.1043 44,-36.1043 44,-36.1043 44,-41.1043 39.5,-36.1044 44.0001,-46.1043 44.0001,-46.1043"/>
</g>
<!-- Student -->
<g id="node3" class="node"><title>Student</title>
<ellipse fill="none" stroke="black" cx="44" cy="-162" rx="37.1944" ry="18"/>
<text text-anchor="middle" x="44" y="-157.8" font-family="Times,serif" font-size="14.00">Student</text>
</g>
<!-- Student&#45;&gt;Instructor -->
<g id="edge2" class="edge"><title>Student&#45;&gt;Instructor</title>
<path fill="none" stroke="#f1b8ad" d="M44,-135.64C44,-129.348 44,-122.605 44,-116.316"/>
<ellipse fill="none" stroke="#f1b8ad" cx="44" cy="-139.697" rx="4" ry="4"/>
<ellipse fill="#f1b8ad" stroke="#f1b8ad" cx="44" cy="-112.104" rx="4" ry="4"/>
</g>
</g>
</svg>
