<?xml version="1.0" encoding="UTF-8" standalone="no"?>
<!DOCTYPE svg PUBLIC "-//W3C//DTD SVG 1.1//EN"
 "http://www.w3.org/Graphics/SVG/1.1/DTD/svg11.dtd">
<!-- Generated by graphviz version 2.36.0 (20140111.2315)
 -->
<!-- Title: models_diagram Pages: 1 -->
<svg width="158pt" height="400pt"
 viewBox="0.00 0.00 158.00 400.00" xmlns="http://www.w3.org/2000/svg" xmlns:xlink="http://www.w3.org/1999/xlink">
<g id="graph0" class="graph" transform="scale(1 1) rotate(0) translate(4 396)">
<title>models_diagram</title>
<polygon fill="white" stroke="none" points="-4,4 -4,-396 154,-396 154,4 -4,4"/>
<!-- Instructor -->
<g id="node1" class="node"><title>Instructor</title>
<path fill="none" stroke="black" d="M11.1499,-139C11.1499,-139 138.85,-139 138.85,-139 144.85,-139 150.85,-145 150.85,-151 150.85,-151 150.85,-227 150.85,-227 150.85,-233 144.85,-239 138.85,-239 138.85,-239 11.1499,-239 11.1499,-239 5.1499,-239 -0.850098,-233 -0.850098,-227 -0.850098,-227 -0.850098,-151 -0.850098,-151 -0.850098,-145 5.1499,-139 11.1499,-139"/>
<text text-anchor="middle" x="75" y="-223.8" font-family="Times,serif" font-size="14.00">Instructor</text>
<polyline fill="none" stroke="black" points="-0.850098,-217 150.85,-217 "/>
<text text-anchor="start" x="7.1499" y="-201.8" font-family="Times,serif" font-size="14.00">id :integer</text>
<text text-anchor="start" x="7.1499" y="-187.8" font-family="Times,serif" font-size="14.00">name :string</text>
<text text-anchor="start" x="7.1499" y="-173.8" font-family="Times,serif" font-size="14.00">github_username :string</text>
<text text-anchor="start" x="7.1499" y="-159.8" font-family="Times,serif" font-size="14.00">created_at :datetime</text>
<text text-anchor="start" x="7.1499" y="-145.8" font-family="Times,serif" font-size="14.00">updated_at :datetime</text>
</g>
<!-- Squad -->
<g id="node2" class="node"><title>Squad</title>
<path fill="none" stroke="black" d="M20.0981,-1C20.0981,-1 129.902,-1 129.902,-1 135.902,-1 141.902,-7 141.902,-13 141.902,-13 141.902,-89 141.902,-89 141.902,-95 135.902,-101 129.902,-101 129.902,-101 20.0981,-101 20.0981,-101 14.0981,-101 8.09814,-95 8.09814,-89 8.09814,-89 8.09814,-13 8.09814,-13 8.09814,-7 14.0981,-1 20.0981,-1"/>
<text text-anchor="middle" x="75" y="-85.8" font-family="Times,serif" font-size="14.00">Squad</text>
<polyline fill="none" stroke="black" points="8.09814,-79 141.902,-79 "/>
<text text-anchor="start" x="16.0981" y="-63.8" font-family="Times,serif" font-size="14.00">id :integer</text>
<text text-anchor="start" x="16.0981" y="-49.8" font-family="Times,serif" font-size="14.00">color :string</text>
<text text-anchor="start" x="16.0981" y="-35.8" font-family="Times,serif" font-size="14.00">instructor_id :integer</text>
<text text-anchor="start" x="16.0981" y="-21.8" font-family="Times,serif" font-size="14.00">created_at :datetime</text>
<text text-anchor="start" x="16.0981" y="-7.8" font-family="Times,serif" font-size="14.00">updated_at :datetime</text>
</g>
<!-- Instructor&#45;&gt;Squad -->
<g id="edge1" class="edge"><title>Instructor&#45;&gt;Squad</title>
<path fill="none" stroke="#7d4827" d="M75,-130.702C75,-124.225 75,-117.615 75,-111.115"/>
<ellipse fill="none" stroke="#7d4827" cx="75" cy="-134.901" rx="4" ry="4"/>
<polygon fill="#7d4827" stroke="#7d4827" points="75.0001,-111.027 79.5,-101.027 75,-106.027 75,-101.027 75,-101.027 75,-101.027 75,-106.027 70.5,-101.027 75.0001,-111.027 75.0001,-111.027"/>
</g>
<!-- Student -->
<g id="node3" class="node"><title>Student</title>
<path fill="none" stroke="black" d="M11.1499,-277C11.1499,-277 138.85,-277 138.85,-277 144.85,-277 150.85,-283 150.85,-289 150.85,-289 150.85,-379 150.85,-379 150.85,-385 144.85,-391 138.85,-391 138.85,-391 11.1499,-391 11.1499,-391 5.1499,-391 -0.850098,-385 -0.850098,-379 -0.850098,-379 -0.850098,-289 -0.850098,-289 -0.850098,-283 5.1499,-277 11.1499,-277"/>
<text text-anchor="middle" x="75" y="-375.8" font-family="Times,serif" font-size="14.00">Student</text>
<polyline fill="none" stroke="black" points="-0.850098,-369 150.85,-369 "/>
<text text-anchor="start" x="7.1499" y="-353.8" font-family="Times,serif" font-size="14.00">id :integer</text>
<text text-anchor="start" x="7.1499" y="-339.8" font-family="Times,serif" font-size="14.00">name :string</text>
<text text-anchor="start" x="7.1499" y="-325.8" font-family="Times,serif" font-size="14.00">github_username :string</text>
<text text-anchor="start" x="7.1499" y="-311.8" font-family="Times,serif" font-size="14.00">squad_id :integer</text>
<text text-anchor="start" x="7.1499" y="-297.8" font-family="Times,serif" font-size="14.00">created_at :datetime</text>
<text text-anchor="start" x="7.1499" y="-283.8" font-family="Times,serif" font-size="14.00">updated_at :datetime</text>
</g>
<!-- Student&#45;&gt;Instructor -->
<g id="edge2" class="edge"><title>Student&#45;&gt;Instructor</title>
<path fill="none" stroke="#79fc02" d="M75,-268.704C75,-261.646 75,-254.493 75,-247.525"/>
<ellipse fill="none" stroke="#79fc02" cx="75" cy="-272.893" rx="4" ry="4"/>
<ellipse fill="#79fc02" stroke="#79fc02" cx="75" cy="-243.446" rx="4" ry="4"/>
</g>
</g>
</svg>
